<?xml version="1.0" encoding="UTF-8"?>
<mxfile host="app.diagrams.net" modified="2024-08-27T00:00:00.000Z" agent="5.0" version="21.6.5" etag="JWT_SEQUENCE" type="device">
  <diagram name="JWT Authentication" id="jwt-auth">
    <mxGraphModel dx="1200" dy="800" grid="1" gridSize="10" guides="1" tooltips="1" connect="1" arrows="1" fold="1" page="1" pageScale="1" pageWidth="827" pageHeight="1169" math="0" shadow="0">
      <root>
        <mxCell id="0"/>
        <mxCell id="1" parent="0"/>
        <mxCell id="2" value="User" style="shape=umlActor;verticalLabelPosition=bottom;verticalAlign=top;html=1;" parent="1" vertex="1">
          <mxGeometry x="40" y="40" width="30" height="60" as="geometry"/>
        </mxCell>
        <mxCell id="3" value="React App" style="rounded=1;whiteSpace=wrap;html=1;" parent="1" vertex="1">
          <mxGeometry x="150" y="40" width="80" height="60" as="geometry"/>
        </mxCell>
        <mxCell id="4" value="Auth Server" style="rounded=1;whiteSpace=wrap;html=1;" parent="1" vertex="1">
          <mxGeometry x="280" y="40" width="80" height="60" as="geometry"/>
        </mxCell>
        <mxCell id="5" value="API Server" style="rounded=1;whiteSpace=wrap;html=1;" parent="1" vertex="1">
          <mxGeometry x="410" y="40" width="80" height="60" as="geometry"/>
        </mxCell>
        <mxCell id="6" value="" style="endArrow=none;dashed=1;html=1;" parent="1" edge="1">
          <mxGeometry width="50" height="50" relative="1" as="geometry">
            <mxPoint x="55" y="120" as="sourcePoint"/>
            <mxPoint x="55" y="500" as="targetPoint"/>
          </mxGeometry>
        </mxCell>
        <mxCell id="7" value="" style="endArrow=none;dashed=1;html=1;" parent="1" edge="1">
          <mxGeometry width="50" height="50" relative="1" as="geometry">
            <mxPoint x="190" y="120" as="sourcePoint"/>
            <mxPoint x="190" y="500" as="targetPoint"/>
          </mxGeometry>
        </mxCell>
        <mxCell id="8" value="" style="endArrow=none;dashed=1;html=1;" parent="1" edge="1">
          <mxGeometry width="50" height="50" relative="1" as="geometry">
            <mxPoint x="320" y="120" as="sourcePoint"/>
            <mxPoint x="320" y="500" as="targetPoint"/>
          </mxGeometry>
        </mxCell>
        <mxCell id="9" value="" style="endArrow=none;dashed=1;html=1;" parent="1" edge="1">
          <mxGeometry width="50" height="50" relative="1" as="geometry">
            <mxPoint x="450" y="120" as="sourcePoint"/>
            <mxPoint x="450" y="500" as="targetPoint"/>
          </mxGeometry>
        </mxCell>
        <mxCell id="10" value="Login" style="endArrow=classic;html=1;" parent="1" edge="1">
          <mxGeometry width="50" height="50" relative="1" as="geometry">
            <mxPoint x="60" y="150" as="sourcePoint"/>
            <mxPoint x="185" y="150" as="targetPoint"/>
          </mxGeometry>
        </mxCell>
        <mxCell id="11" value="POST /auth/login" style="endArrow=classic;html=1;" parent="1" edge="1">
          <mxGeometry width="50" height="50" relative="1" as="geometry">
            <mxPoint x="195" y="170" as="sourcePoint"/>
            <mxPoint x="315" y="170" as="targetPoint"/>
          </mxGeometry>
        </mxCell>
        <mxCell id="12" value="JWT Token" style="endArrow=classic;html=1;" parent="1" edge="1">
          <mxGeometry width="50" height="50" relative="1" as="geometry">
            <mxPoint x="315" y="190" as="sourcePoint"/>
            <mxPoint x="195" y="190" as="targetPoint"/>
          </mxGeometry>
        </mxCell>
        <mxCell id="13" value="API Call" style="endArrow=classic;html=1;" parent="1" edge="1">
          <mxGeometry width="50" height="50" relative="1" as="geometry">
            <mxPoint x="195" y="230" as="sourcePoint"/>
            <mxPoint x="445" y="230" as="targetPoint"/>
          </mxGeometry>
        </mxCell>
        <mxCell id="14" value="Response" style="endArrow=classic;html=1;" parent="1" edge="1">
          <mxGeometry width="50" height="50" relative="1" as="geometry">
            <mxPoint x="445" y="250" as="sourcePoint"/>
            <mxPoint x="195" y="250" as="targetPoint"/>
          </mxGeometry>
        </mxCell>
        <mxCell id="15" value="Token Expired" style="endArrow=classic;html=1;strokeColor=#ff6b6b;" parent="1" edge="1">
          <mxGeometry width="50" height="50" relative="1" as="geometry">
            <mxPoint x="195" y="300" as="sourcePoint"/>
            <mxPoint x="445" y="300" as="targetPoint"/>
          </mxGeometry>
        </mxCell>
        <mxCell id="16" value="401 Error" style="endArrow=classic;html=1;strokeColor=#ff6b6b;" parent="1" edge="1">
          <mxGeometry width="50" height="50" relative="1" as="geometry">
            <mxPoint x="445" y="320" as="sourcePoint"/>
            <mxPoint x="195" y="320" as="targetPoint"/>
          </mxGeometry>
        </mxCell>
        <mxCell id="17" value="Refresh Token" style="endArrow=classic;html=1;" parent="1" edge="1">
          <mxGeometry width="50" height="50" relative="1" as="geometry">
            <mxPoint x="195" y="350" as="sourcePoint"/>
            <mxPoint x="315" y="350" as="targetPoint"/>
          </mxGeometry>
        </mxCell>
        <mxCell id="18" value="New JWT" style="endArrow=classic;html=1;" parent="1" edge="1">
          <mxGeometry width="50" height="50" relative="1" as="geometry">
            <mxPoint x="315" y="370" as="sourcePoint"/>
            <mxPoint x="195" y="370" as="targetPoint"/>
          </mxGeometry>
        </mxCell>
        <mxCell id="19" value="Retry API" style="endArrow=classic;html=1;" parent="1" edge="1">
          <mxGeometry width="50" height="50" relative="1" as="geometry">
            <mxPoint x="195" y="400" as="sourcePoint"/>
            <mxPoint x="445" y="400" as="targetPoint"/>
          </mxGeometry>
        </mxCell>
      </root>
    </mxGraphModel>
  </diagram>
</mxfile>